<svg width="357.453" height="222.773" viewBox="0 0 268.09 167.08" class="displayed_equation" xmlns="http://www.w3.org/2000/svg">
  <path d="M 145.507813 145.526563 L 2491.835938 1500.175" transform="matrix(.1 0 0 -.1 0 167.08)" fill="none" stroke-width="7.97" stroke="#e14b3b" stroke-miterlimit="10" />
  <path d="M 252.53125 15.132813 L 246.761719 16.078125 L 249.355469 16.964844 L 248.824219 19.652344" fill="#e14b3b" />
  <path d="M 2525.3125 1519.471875 L 2467.617188 1510.01875 L 2493.554688 1501.151563 L 2488.242188 1474.276563 Z M 2525.3125 1519.471875" transform="matrix(.1 0 0 -.1 0 167.08)" fill="none" stroke-width="7.97" stroke="#e14b3b" stroke-miterlimit="10" />
  <path d="M 194.523438 121.25 C 194.523438 119.839844 193.378906 118.699219 191.972656 118.699219 C 190.5625 118.699219 189.421875 119.839844 189.421875 121.25 C 189.421875 122.65625 190.5625 123.800781 191.972656 123.800781 C 193.378906 123.800781 194.523438 122.65625 194.523438 121.25 Z M 194.523438 121.25" />
  <path d="M 2510.390625 1482.010938 L 1919.726563 458.3" transform="matrix(.1 0 0 -.1 0 167.08)" fill="none" stroke-width="7.97" stroke="#109e24" stroke-miterlimit="10" />
  <path d="M 252.972656 15.53125 L 248.453125 19.238281 L 251.140625 18.707031 L 252.027344 21.300781" fill="#109e24" />
  <path d="M 2529.726563 1515.4875 L 2484.53125 1478.417188 L 2511.40625 1483.729688 L 2520.273438 1457.792188 Z M 2529.726563 1515.4875" transform="matrix(.1 0 0 -.1 0 167.08)" fill="none" stroke-width="7.97" stroke="#109e24" stroke-miterlimit="10" />
  <path d="M 145.507813 145.526563 L 1870.507813 449.628125" transform="matrix(.1 0 0 -.1 0 167.08)" fill="none" stroke-width="7.97" stroke="#55a4e0" stroke-miterlimit="10" />
  <path d="M 190.855469 121.445313 L 185.109375 120.363281 L 187.246094 122.082031 L 185.828125 124.425781" fill="#55a4e0" />
  <path d="M 1908.554688 456.346875 L 1851.09375 467.167188 L 1872.460938 449.979688 L 1858.28125 426.542188 Z M 1908.554688 456.346875" transform="matrix(.1 0 0 -.1 0 167.08)" fill="none" stroke-width="7.97" stroke="#55a4e0" stroke-miterlimit="10" />
  <path d="M111.089844 71.304688L111.089844 71.113281 109.460938 69.574219 109.269531 69.796875 109.617188 70.199219C109.773438 70.390625 109.871094 70.476563 109.871094 70.632813 109.871094 70.757813 109.78125 70.78125 109.617188 70.78125L106.191406 70.78125 106.191406 71.304688 111.089844 71.304688M105.167969 75.019531C105.347656 74.796875 105.613281 74.417969 105.992188 74.417969 106.148438 74.417969 106.226563 74.507813 106.226563 74.640625 106.226563 74.785156 106.183594 74.941406 106.183594 74.941406L105.558594 77.472656C105.515625 77.628906 105.445313 78 105.445313 78.289063 105.445313 78.699219 105.613281 79.089844 106.183594 79.089844 107.488281 79.089844 108.382813 77.5625 108.804688 76.78125L108.90625 76.78125C108.714844 77.507813 108.546875 77.953125 108.546875 78.476563 108.546875 78.96875 108.917969 79.078125 109.21875 79.078125 109.898438 79.078125 110.3125 78.625 110.804688 77.910156L110.570313 77.742188C110.570313 77.742188 110.15625 78.320313 109.753906 78.320313 109.574219 78.320313 109.519531 78.21875 109.519531 78.132813 109.519531 77.964844 109.585938 77.652344 109.585938 77.652344L110.390625 73.734375 109.464844 73.734375 109.128906 75.277344C108.871094 76.414063 107.566406 78.289063 106.742188 78.289063 106.484375 78.289063 106.40625 78.097656 106.40625 77.832031 106.40625 77.609375 106.484375 77.296875 106.484375 77.296875L107.15625 74.742188C107.164063 74.683594 107.210938 74.496094 107.210938 74.304688 107.210938 73.980469 107.042969 73.65625 106.507813 73.65625 105.714844 73.65625 105.226563 74.429688 104.945313 74.839844L105.167969 75.019531M121.039063 76.46875L121.039063 75.710938 118.117188 75.710938 118.117188 72.753906 117.3125 72.753906 117.3125 75.710938 114.390625 75.710938 114.390625 76.46875 117.3125 76.46875 117.3125 79.425781 118.117188 79.425781 118.117188 76.46875 121.039063 76.46875M131.488281 71.304688L131.488281 71.113281 129.859375 69.574219 129.671875 69.796875 130.015625 70.199219C130.171875 70.390625 130.273438 70.476563 130.273438 70.632813 130.273438 70.757813 130.183594 70.78125 130.015625 70.78125L126.589844 70.78125 126.589844 71.304688 131.488281 71.304688M126.53125 73.667969L124.890625 73.792969 124.890625 74.105469C124.890625 74.105469 125.226563 74.070313 125.40625 74.070313 125.605469 74.070313 125.671875 74.226563 125.671875 74.417969 125.671875 74.640625 125.59375 74.90625 125.5625 75.03125L125.339844 75.878906C125.214844 76.347656 125.09375 76.9375 125.09375 77.472656 125.09375 78.332031 125.414063 79.078125 126.53125 79.078125 128.539063 79.078125 129.644531 76.679688 129.644531 74.984375 129.644531 74.195313 129.296875 73.636719 128.796875 73.636719 128.5625 73.636719 128.371094 73.804688 128.371094 74.105469 128.371094 74.59375 129.054688 74.863281 129.054688 75.644531 129.054688 76.679688 128.40625 78.367188 126.878906 78.367188 126.195313 78.367188 126.007813 77.875 126.007813 77.296875 126.007813 76.792969 126.152344 76.203125 126.253906 75.8125L126.777344 73.667969 126.53125 73.667969" fill="#e14b3b" />
  <path d="M234.089844 64.90625L234.089844 64.714844 232.460938 63.175781 232.269531 63.398438 232.617188 63.800781C232.773438 63.988281 232.871094 64.078125 232.871094 64.234375 232.871094 64.359375 232.78125 64.378906 232.617188 64.378906L229.191406 64.378906 229.191406 64.90625 234.089844 64.90625M229.132813 67.269531L227.492188 67.390625 227.492188 67.703125C227.492188 67.703125 227.828125 67.671875 228.003906 67.671875 228.203125 67.671875 228.273438 67.828125 228.273438 68.015625 228.273438 68.242188 228.195313 68.507813 228.160156 68.628906L227.9375 69.476563C227.8125 69.945313 227.691406 70.539063 227.691406 71.074219 227.691406 71.933594 228.015625 72.679688 229.132813 72.679688 231.140625 72.679688 232.242188 70.28125 232.242188 68.585938 232.242188 67.792969 231.898438 67.234375 231.394531 67.234375 231.160156 67.234375 230.972656 67.402344 230.972656 67.703125 230.972656 68.195313 231.652344 68.460938 231.652344 69.242188 231.652344 70.28125 231.007813 71.964844 229.476563 71.964844 228.796875 71.964844 228.605469 71.476563 228.605469 70.894531 228.605469 70.394531 228.753906 69.800781 228.851563 69.410156L229.378906 67.269531 229.132813 67.269531" fill="#109e24" />
  <path d="M106.589844 142.804688L106.589844 142.613281 104.960938 141.074219 104.769531 141.296875 105.117188 141.699219C105.273438 141.890625 105.371094 141.976563 105.371094 142.132813 105.371094 142.257813 105.28125 142.28125 105.117188 142.28125L101.691406 142.28125 101.691406 142.804688 106.589844 142.804688M100.570313 146.519531C100.746094 146.296875 101.015625 145.917969 101.394531 145.917969 101.550781 145.917969 101.628906 146.007813 101.628906 146.140625 101.628906 146.285156 101.585938 146.441406 101.585938 146.441406L100.960938 148.972656C100.914063 149.128906 100.847656 149.5 100.847656 149.789063 100.847656 150.199219 101.015625 150.589844 101.585938 150.589844 102.890625 150.589844 103.78125 149.0625 104.207031 148.28125L104.304688 148.28125C104.117188 149.007813 103.949219 149.453125 103.949219 149.976563 103.949219 150.46875 104.316406 150.578125 104.617188 150.578125 105.296875 150.578125 105.710938 150.125 106.203125 149.410156L105.96875 149.242188C105.96875 149.242188 105.554688 149.820313 105.152344 149.820313 104.976563 149.820313 104.917969 149.71875 104.917969 149.632813 104.917969 149.464844 104.984375 149.152344 104.984375 149.152344L105.789063 145.234375 104.863281 145.234375 104.53125 146.777344C104.273438 147.914063 102.96875 149.789063 102.140625 149.789063 101.882813 149.789063 101.804688 149.597656 101.804688 149.332031 101.804688 149.109375 101.882813 148.796875 101.882813 148.796875L102.554688 146.242188C102.566406 146.183594 102.609375 145.996094 102.609375 145.804688 102.609375 145.480469 102.441406 145.15625 101.90625 145.15625 101.117188 145.15625 100.625 145.929688 100.34375 146.339844L100.570313 146.519531" fill="#55a4e0" />
  <path d="M17.101563 152.527344C17.101563 151.121094 15.960938 149.976563 14.550781 149.976563 13.140625 149.976563 12 151.121094 12 152.527344 12 153.9375 13.140625 155.078125 14.550781 155.078125 15.960938 155.078125 17.101563 153.9375 17.101563 152.527344zM256.089844 14.550781C256.089844 13.140625 254.949219 12 253.539063 12 252.128906 12 250.988281 13.140625 250.988281 14.550781 250.988281 15.957031 252.128906 17.101563 253.539063 17.101563 254.949219 17.101563 256.089844 15.957031 256.089844 14.550781zM256.089844 14.550781" />
</svg>